C:\GBW_MyPrograms\KinderuniversiteitApp\Resultaten\Ellis\Smurf\Smurf_v2.mot
version=1
nRows=13
nColumns=29
inDegrees=yes
endheader
                time	         pelvis_tilt	           pelvis_tx	           pelvis_ty	       hip_flexion_l	       hip_flexion_r	        knee_angle_l	        knee_angle_r	       ankle_angle_l	       ankle_angle_r	    lumbar_extension	hamstrings_r/activation	bifemsh_r/activation	glut_max_r/activation	iliopsoas_r/activation	rect_fem_r/activation	  vasti_r/activation	gastroc_r/activation	 soleus_r/activation	tib_ant_r/activation	hamstrings_l/activation	bifemsh_l/activation	glut_max_l/activation	iliopsoas_l/activation	rect_fem_l/activation	  vasti_l/activation	gastroc_l/activation	 soleus_l/activation	tib_ant_l/activation	
          3.00000000	         -8.69154062	          0.59375095	          0.91198209	         25.95554011	          5.08448632	        -13.82204148	         -0.63899647	          1.94126825	         11.67204896	          1.31041592	          0.05000000	          0.05000000	          0.05000000	          0.34290963	          0.16121737	          0.05000000	          0.05000001	          0.05995963	          0.08364610	          0.05000000	          0.05000000	          0.05000000	          0.17774329	          0.18376521	          0.08231547	          0.05000000	          0.05000000	          0.25398760	
          3.02000000	         -8.71513334	          0.60058531	          0.91162267	         24.83421730	          4.65621276	        -12.41824223	         -0.71987046	          1.39297301	         12.06242358	          1.57295242	          0.05000000	          0.05000001	          0.05000000	          0.27688861	          0.14777359	          0.05000000	          0.05000003	          0.08237409	          0.06273458	          0.05000000	          0.05000000	          0.05000000	          0.13330747	          0.19857228	          0.13943625	          0.05000000	          0.05000000	          0.24649814	
          3.04000000	         -8.71919767	          0.60790183	          0.91141612	         23.55762164	          4.18441389	        -10.90288824	         -0.81587683	          1.03618029	         12.40803462	          1.86413847	          0.05000000	          0.05000000	          0.05000000	          0.21357116	          0.15518857	          0.05750744	          0.05000000	          0.10022282	          0.05000000	          0.05000000	          0.05000000	          0.10985108	          0.09998060	          0.23110015	          0.24345746	          0.05000000	          0.05000000	          0.29626245	
          3.06000000	         -8.70510338	          0.61550161	          0.91151386	         22.25325773	          3.68162701	         -9.42002195	         -0.91840741	          0.84593249	         12.67446476	          2.16255511	          0.05000000	          0.05000000	          0.05000000	          0.19412171	          0.16059466	          0.09415687	          0.05000000	          0.10839783	          0.05000000	          0.05000000	          0.05000000	          0.20065709	          0.07498545	          0.25908593	          0.32356908	          0.05000000	          0.05000000	          0.30792337	
          3.08000000	         -8.67373656	          0.62321435	          0.91192525	         20.99383399	          3.15456237	         -8.07698930	         -1.01352235	          0.82344006	         12.83678795	          2.45065790	          0.05000000	          0.05000000	          0.05000000	          0.17227400	          0.16254357	          0.11470912	          0.05000000	          0.11124382	          0.05000000	          0.05000000	          0.05000000	          0.25608700	          0.05623909	          0.27539805	          0.37603119	          0.05000000	          0.05000000	          0.29440341	
          3.10000000	         -8.62565732	          0.63093007	          0.91253087	         19.78637927	          2.60675202	         -6.87162552	         -1.09204171	          0.94051934	         12.89236985	          2.71848152	          0.05000000	          0.05000000	          0.05000000	          0.13876712	          0.15446249	          0.11929905	          0.05000000	          0.11750748	          0.05000000	          0.05000000	          0.05000000	          0.27498128	          0.05000000	          0.27269161	          0.39531347	          0.05000000	          0.05000000	          0.29781202	
          3.12000000	         -8.56136666	          0.63857788	          0.91317496	         18.62118421	          2.03840520	         -5.77334977	         -1.14642072	          1.14092992	         12.86507743	          2.96076876	          0.05000000	          0.05000000	          0.05000000	          0.10407560	          0.14032265	          0.11658299	          0.05000000	          0.12906640	          0.05000000	          0.05000000	          0.05000000	          0.27191013	          0.05000000	          0.25337652	          0.38820817	          0.05000000	          0.05000000	          0.30832167	
          3.14000000	         -8.48190047	          0.64610138	          0.91373805	         17.49784460	          1.44894835	         -4.77113387	         -1.16968775	          1.39214980	         12.79168603	          3.17432490	          0.05000000	          0.05000000	          0.05000000	          0.07805671	          0.12037466	          0.11136101	          0.05000000	          0.14530630	          0.05000000	          0.05000000	          0.05000000	          0.25838061	          0.05000000	          0.22154476	          0.36298051	          0.05000000	          0.05000000	          0.32070982	
          3.16000000	         -8.38914229	          0.65344664	          0.91416463	         16.42507305	          0.84061859	         -3.87151676	         -1.15791812	          1.68801569	         12.70421358	          3.35688598	          0.05000000	          0.05000000	          0.05000000	          0.05854256	          0.10585115	          0.10452500	          0.05000001	          0.16157526	          0.05000000	          0.05000000	          0.05000000	          0.23722014	          0.05000000	          0.17433255	          0.32623011	          0.05000000	          0.05000000	          0.33148879	
          3.18000000	         -8.28577776	          0.66056094	          0.91445644	         15.41540781	          0.21959638	         -3.08677108	         -1.11097620	          2.02773814	         12.61832492	          3.50700919	          0.05000000	          0.05000000	          0.05000000	          0.05000000	          0.08154001	          0.09661880	          0.06038050	          0.17218391	          0.05000000	          0.05000000	          0.05000000	          0.21588052	          0.05000000	          0.13074942	          0.28294533	          0.05000000	          0.05000000	          0.34009271	
          3.20000000	         -8.17506059	          0.66739472	          0.91465036	         14.47912037	         -0.39950202	         -2.42316218	         -1.04225965	          2.40457749	         12.53947916	          3.62413293	          0.05000000	          0.05000000	          0.05000000	          0.05000000	          0.06115506	          0.09018501	          0.07383540	          0.17681181	          0.05000000	          0.05425246	          0.05000000	          0.19419946	          0.05000000	          0.09806207	          0.23632646	          0.05000000	          0.05000000	          0.34596632	
          3.22000000	         -8.06054603	          0.67390693	          0.91479237	         13.62195331	         -0.99577505	         -1.87830830	         -0.97768935	          2.80626069	         12.48189462	          3.70896270	          0.05000000	          0.05000000	          0.05000001	          0.05000000	          0.05000004	          0.08008816	          0.08243846	          0.17265093	          0.05000000	          0.06126122	          0.05000000	          0.16899354	          0.05000000	          0.07354655	          0.19036938	          0.05000000	          0.05000000	          0.34868480	
          3.24000000	         -7.94588232	          0.68006777	          0.91491834	         12.84654664	         -1.54414922	         -1.44483326	         -0.95436718	          3.21771987	         12.47416208	          3.76353133	          0.05000000	          0.05000000	          0.05000006	          0.05000000	          0.05000001	          0.06214261	          0.07906558	          0.15802462	          0.05000000	          0.06526998	          0.05000000	          0.14845091	          0.05000000	          0.05515992	          0.14982158	          0.05000000	          0.05000000	          0.34853322	
